<svg xmlns="http://www.w3.org/2000/svg" height="48" viewBox="0 -960 960 960" width="48" fill="#dde6ed"><path d="M177-65q-28.725 0-50.863-22.138Q104-109.275 104-138v-626q0-28.725 22.137-50.862Q148.275-837 177-837h49v-58h78v58h352v-58h78v58h49q28.725 0 50.862 22.138Q856-792.725 856-764v626q0 28.725-22.138 50.862Q811.725-65 783-65H177Zm0-73h606v-442H177v442Zm0-515h606v-111H177v111Zm0 0v-111 111Zm302.807 256Q462-397 449.5-409.693t-12.5-30.5Q437-458 449.693-470.5t30.5-12.5Q498-483 510.5-470.307t12.5 30.5Q523-422 510.307-409.5t-30.5 12.5Zm-160 0Q302-397 289.5-409.693t-12.5-30.5Q277-458 289.693-470.5t30.5-12.5Q338-483 350.5-470.307t12.5 30.5Q363-422 350.307-409.5t-30.5 12.5Zm320 0Q622-397 609.5-409.693t-12.5-30.5Q597-458 609.693-470.5t30.5-12.5Q658-483 670.5-470.307t12.5 30.5Q683-422 670.307-409.5t-30.5 12.5Zm-160 160Q462-237 449.5-249.693t-12.5-30.5Q437-298 449.693-310.5t30.5-12.5Q498-323 510.5-310.307t12.5 30.5Q523-262 510.307-249.5t-30.5 12.5Zm-160 0Q302-237 289.5-249.693t-12.5-30.5Q277-298 289.693-310.5t30.5-12.5Q338-323 350.5-310.307t12.5 30.5Q363-262 350.307-249.5t-30.5 12.5Zm320 0Q622-237 609.5-249.693t-12.5-30.5Q597-298 609.693-310.5t30.5-12.5Q658-323 670.5-310.307t12.5 30.5Q683-262 670.307-249.5t-30.5 12.5Z"/></svg>