<svg width="677" height="520" viewBox="0 0 677 520" fill="none" xmlns="http://www.w3.org/2000/svg">
<path d="M119.019 398.6C106.319 367.3 99.6188 333.5 99.6188 298.6C99.6188 227.8 127.219 161.2 177.219 111.2C227.319 61.1 293.819 33.6 364.619 33.6C435.419 33.6 502.019 61.2 552.019 111.2C577.519 136.7 597.119 166.4 610.319 198.8L639.519 186.9C624.819 150.7 602.819 117.4 574.319 88.9C518.319 32.9 443.819 2 364.619 2C285.419 2 210.919 32.8 154.919 88.9C98.9188 144.9 68.0188 219.4 68.0188 298.6C68.0188 337.6 75.5188 375.4 89.7188 410.4L119.019 398.6Z" fill="#F5DA8D"/>
<path d="M119.019 398.6C106.319 367.3 99.6188 333.5 99.6188 298.6C99.6188 227.8 127.219 161.2 177.219 111.2C227.319 61.1 293.819 33.6 364.619 33.6C435.419 33.6 502.019 61.2 552.019 111.2C577.519 136.7 597.119 166.4 610.319 198.8L639.519 186.9C624.819 150.7 602.819 117.4 574.319 88.9C518.319 32.9 443.819 2 364.619 2C285.419 2 210.919 32.8 154.919 88.9C98.9188 144.9 68.0188 219.4 68.0188 298.6C68.0188 337.6 75.5188 375.4 89.7188 410.4L119.019 398.6Z" stroke="#3D0938" stroke-width="4" stroke-miterlimit="10" stroke-linecap="round" stroke-linejoin="round"/>
<path d="M148.219 386.8C137.019 359.2 131.119 329.4 131.119 298.7C131.119 236.3 155.419 177.7 199.519 133.5C243.619 89.4 302.319 65.1 364.719 65.1C427.119 65.1 485.719 89.4 529.919 133.5C552.419 156 569.719 182.2 581.219 210.7L610.419 198.8C597.219 166.4 577.619 136.6 552.119 111.2C502.019 61.1 435.519 33.6 364.719 33.6C293.919 33.6 227.319 61.2 177.319 111.2C127.219 161.3 99.7188 227.8 99.7188 298.6C99.7188 333.4 106.419 367.2 119.119 398.6L148.219 386.8Z" fill="#E38980"/>
<path d="M148.219 386.8C137.019 359.2 131.119 329.4 131.119 298.7C131.119 236.3 155.419 177.7 199.519 133.5C243.619 89.4 302.319 65.1 364.719 65.1C427.119 65.1 485.719 89.4 529.919 133.5C552.419 156 569.719 182.2 581.219 210.7L610.419 198.8C597.219 166.4 577.619 136.6 552.119 111.2C502.019 61.1 435.519 33.6 364.719 33.6C293.919 33.6 227.319 61.2 177.319 111.2C127.219 161.3 99.7188 227.8 99.7188 298.6C99.7188 333.4 106.419 367.2 119.119 398.6L148.219 386.8Z" stroke="#3D0938" stroke-width="4" stroke-miterlimit="10" stroke-linecap="round" stroke-linejoin="round"/>
<path d="M177.419 374.9C167.719 351 162.619 325.2 162.619 298.7C162.619 244.7 183.619 194 221.819 155.8C260.019 117.6 310.719 96.6 364.719 96.6C418.719 96.6 469.419 117.6 507.619 155.8C527.019 175.2 542.019 197.9 552.019 222.6L581.219 210.7C569.619 182.1 552.319 155.9 529.919 133.5C485.819 89.4 427.119 65.1 364.719 65.1C302.319 65.1 243.719 89.4 199.519 133.5C155.419 177.6 131.119 236.3 131.119 298.7C131.119 329.4 137.019 359.2 148.219 386.8L177.419 374.9Z" fill="#CC5F7E"/>
<path d="M177.419 374.9C167.719 351 162.619 325.2 162.619 298.7C162.619 244.7 183.619 194 221.819 155.8C260.019 117.6 310.719 96.6 364.719 96.6C418.719 96.6 469.419 117.6 507.619 155.8C527.019 175.2 542.019 197.9 552.019 222.6L581.219 210.7C569.619 182.1 552.319 155.9 529.919 133.5C485.819 89.4 427.119 65.1 364.719 65.1C302.319 65.1 243.719 89.4 199.519 133.5C155.419 177.6 131.119 236.3 131.119 298.7C131.119 329.4 137.019 359.2 148.219 386.8L177.419 374.9Z" stroke="#3D0938" stroke-width="4" stroke-miterlimit="10" stroke-linecap="round" stroke-linejoin="round"/>
<path d="M235.819 351.2C229.219 335 225.619 317.3 225.619 298.7C225.619 221.9 287.919 159.6 364.719 159.6C423.019 159.6 472.919 195.5 493.619 246.4L522.819 234.5C514.319 213.6 501.719 194.5 485.319 178.1C453.119 145.9 410.219 128.1 364.719 128.1C319.119 128.1 276.319 145.8 244.119 178.1C211.919 210.3 194.119 253.2 194.119 298.7C194.119 321.1 198.419 342.9 206.619 363.1L235.819 351.2Z" fill="#36C2E3"/>
<path d="M235.819 351.2C229.219 335 225.619 317.3 225.619 298.7C225.619 221.9 287.919 159.6 364.719 159.6C423.019 159.6 472.919 195.5 493.619 246.4L522.819 234.5C514.319 213.6 501.719 194.5 485.319 178.1C453.119 145.9 410.219 128.1 364.719 128.1C319.119 128.1 276.319 145.8 244.119 178.1C211.919 210.3 194.119 253.2 194.119 298.7C194.119 321.1 198.419 342.9 206.619 363.1L235.819 351.2Z" stroke="#3D0938" stroke-width="4" stroke-miterlimit="10" stroke-linecap="round" stroke-linejoin="round"/>
<path d="M206.619 363C198.419 342.8 194.119 321.1 194.119 298.6C194.119 253 211.819 210.2 244.119 178C276.319 145.8 319.219 128 364.719 128C410.319 128 453.119 145.7 485.319 178C501.719 194.4 514.319 213.6 522.819 234.4L552.019 222.5C542.019 197.8 527.019 175.1 507.619 155.7C469.419 117.5 418.719 96.5 364.719 96.5C310.719 96.5 260.019 117.5 221.819 155.7C183.619 193.9 162.619 244.6 162.619 298.6C162.619 325.2 167.719 350.9 177.419 374.8L206.619 363Z" fill="#6D4F8D"/>
<path d="M206.619 363C198.419 342.8 194.119 321.1 194.119 298.6C194.119 253 211.819 210.2 244.119 178C276.319 145.8 319.219 128 364.719 128C410.319 128 453.119 145.7 485.319 178C501.719 194.4 514.319 213.6 522.819 234.4L552.019 222.5C542.019 197.8 527.019 175.1 507.619 155.7C469.419 117.5 418.719 96.5 364.719 96.5C310.719 96.5 260.019 117.5 221.819 155.7C183.619 193.9 162.619 244.6 162.619 298.6C162.619 325.2 167.719 350.9 177.419 374.8L206.619 363Z" stroke="#3D0938" stroke-width="4" stroke-miterlimit="10" stroke-linecap="round" stroke-linejoin="round"/>
<path d="M205.219 327.7H234.619" stroke="#3D0938" stroke-width="6" stroke-miterlimit="10" stroke-linecap="round" stroke-linejoin="round"/>
<path d="M227.719 327.7H257.019" stroke="#3D0938" stroke-width="6" stroke-miterlimit="10" stroke-linecap="round" stroke-linejoin="round"/>
<path d="M647.119 174.9C639.219 174.9 632.019 178.2 626.919 183.6C623.819 153.1 598.019 129.4 566.719 129.4C540.919 129.4 518.819 145.6 510.219 168.4C504.019 166.2 497.319 165 490.219 165C460.519 165 436.419 186.3 436.419 212.6C436.419 237.2 457.519 257.5 484.619 260C491.319 282.4 512.119 298.8 536.719 298.8C559.419 298.8 578.819 284.9 587.019 265.2C593.419 270.9 601.719 274.3 610.919 274.3C630.819 274.3 646.919 258.2 646.919 238.3C646.919 235.7 646.619 233.3 646.119 230.9C646.419 230.9 646.619 230.9 646.919 230.9C662.319 230.9 674.819 218.4 674.819 203C675.019 187.4 662.519 174.9 647.119 174.9Z" fill="#DDE6ED"/>
<path d="M647.119 206.8C646.819 206.8 646.619 206.8 646.319 206.8C646.819 209.2 647.119 211.7 647.119 214.2C647.119 234.1 631.019 250.2 611.119 250.2C601.919 250.2 593.519 246.8 587.219 241.1C579.019 260.8 559.619 274.7 536.919 274.7C512.319 274.7 491.519 258.3 484.819 235.9C462.319 233.8 443.919 219.5 438.319 200.5C437.219 204.3 436.619 208.4 436.619 212.5C436.619 237.1 457.719 257.4 484.819 259.9C491.519 282.3 512.319 298.7 536.919 298.7C559.619 298.7 579.019 284.8 587.219 265.1C593.619 270.8 601.919 274.2 611.119 274.2C631.019 274.2 647.119 258.1 647.119 238.2C647.119 235.6 646.819 233.2 646.319 230.8C646.619 230.8 646.819 230.8 647.119 230.8C662.519 230.8 675.019 218.3 675.019 202.9C675.019 198.6 674.019 194.5 672.319 190.9C667.819 200.3 658.219 206.8 647.119 206.8Z" fill="#9DB2BF"/>
<path d="M647.119 174.9C639.219 174.9 632.019 178.2 626.919 183.6C623.819 153.1 598.019 129.4 566.719 129.4C540.919 129.4 518.819 145.6 510.219 168.4C504.019 166.2 497.319 165 490.219 165C460.519 165 436.419 186.3 436.419 212.6C436.419 237.2 457.519 257.5 484.619 260C491.319 282.4 512.119 298.8 536.719 298.8C559.419 298.8 578.819 284.9 587.019 265.2C593.419 270.9 601.719 274.3 610.919 274.3C630.819 274.3 646.919 258.2 646.919 238.3C646.919 235.7 646.619 233.3 646.119 230.9C646.419 230.9 646.619 230.9 646.919 230.9C662.319 230.9 674.819 218.4 674.819 203C675.019 187.4 662.519 174.9 647.119 174.9Z" stroke="#3D0938" stroke-width="4" stroke-miterlimit="10" stroke-linecap="round" stroke-linejoin="round"/>
<path opacity="0.43" d="M235.819 351.2L206.619 363.1L148.219 386.8L119.019 398.7L89.8188 410.6C75.5188 375.6 68.1188 337.7 68.1188 298.8C68.1188 292.1 68.3188 285.5 68.8188 278.9C69.7188 278.9 70.6188 278.9 71.5188 278.9C76.7188 278.9 81.8188 279.4 86.8188 280.4C91.2188 274.5 96.2188 269.3 101.819 264.7C112.019 256.3 124.019 250.3 136.819 247.1C142.819 245.6 149.019 244.7 155.319 244.5C156.319 244.5 157.319 244.4 158.419 244.4C162.219 244.4 166.019 244.6 169.719 245.1C180.419 246.5 190.519 249.8 199.719 254.6C210.219 260.1 219.619 267.8 227.219 276.9C226.119 284 225.519 291.3 225.519 298.7C225.619 317.3 229.219 335 235.819 351.2Z" fill="#3D0938"/>
<path d="M348.619 385.4C347.919 365.2 331.019 349.4 310.819 350.1C308.919 350.2 307.019 350.4 305.119 350.7C296.919 328.9 275.619 313.8 251.019 314.6C245.719 314.8 240.719 315.7 235.919 317.2C228.219 280.2 194.719 253 155.719 254.3C128.319 255.2 104.619 269.9 91.1188 291.6C84.1188 289.5 76.7188 288.5 69.1188 288.8C30.8188 290.1 0.818829 322.2 2.11883 360.5C3.41883 398.8 35.5188 428.8 73.8188 427.5C76.1188 427.4 78.4188 427.2 80.7188 426.9C94.0188 454.1 122.419 472.3 154.619 471.2C187.819 470.1 215.619 448.7 226.419 419.2C234.819 423.8 244.619 426.3 254.919 425.9C267.319 425.5 278.719 421 287.719 413.8C294.519 419.8 303.519 423.4 313.319 423.1C333.419 422.5 349.219 405.6 348.619 385.4Z" fill="#DDE6ED"/>
<path d="M346.819 375.5C342.219 389.8 329.119 400.3 313.219 400.9C303.419 401.2 294.419 397.7 287.619 391.6C278.619 398.8 267.219 403.3 254.819 403.7C244.519 404 234.719 401.6 226.319 397C215.519 426.4 187.819 447.8 154.519 449C122.319 450.1 94.0187 431.8 80.6187 404.7C78.3187 405 76.0187 405.2 73.7188 405.3C38.4188 406.5 8.41874 381.1 2.91874 347.1C2.21874 351.5 1.91875 356 2.01875 360.7C3.31875 399 35.4188 429 73.7188 427.7C76.0187 427.6 78.3187 427.4 80.6187 427.1C93.9187 454.3 122.319 472.5 154.519 471.4C187.719 470.3 215.519 448.9 226.319 419.4C234.719 424 244.519 426.5 254.819 426.1C267.219 425.7 278.619 421.2 287.619 414C294.419 420 303.419 423.6 313.219 423.3C333.419 422.6 349.219 405.7 348.519 385.5C348.519 382 347.819 378.6 346.819 375.5Z" fill="#9DB2BF"/>
<path d="M348.619 385.4C347.919 365.2 331.019 349.4 310.819 350.1C308.919 350.2 307.019 350.4 305.119 350.7C296.919 328.9 275.619 313.8 251.019 314.6C245.719 314.8 240.719 315.7 235.919 317.2C228.219 280.2 194.719 253 155.719 254.3C128.319 255.2 104.619 269.9 91.1188 291.6C84.1188 289.5 76.7188 288.5 69.1188 288.8C30.8188 290.1 0.818829 322.2 2.11883 360.5C3.41883 398.8 35.5188 428.8 73.8188 427.5C76.1188 427.4 78.4188 427.2 80.7188 426.9C94.0188 454.1 122.419 472.3 154.619 471.2C187.819 470.1 215.619 448.7 226.419 419.2C234.819 423.8 244.619 426.3 254.919 425.9C267.319 425.5 278.719 421 287.719 413.8C294.519 419.8 303.519 423.4 313.319 423.1C333.419 422.5 349.219 405.6 348.619 385.4Z" stroke="#3D0938" stroke-width="4" stroke-miterlimit="10" stroke-linecap="round" stroke-linejoin="round"/>
<path d="M403.419 373.1L416.919 391.1L423.819 380L403.419 373.1Z" fill="#F0406F"/>
<path d="M403.419 373.1L416.919 391.1L423.819 380L403.419 373.1Z" stroke="#3D0938" stroke-width="4" stroke-miterlimit="10" stroke-linecap="round" stroke-linejoin="round"/>
<path d="M412.819 354.6L423.819 380L435.719 373.4L412.819 354.6Z" fill="#F0406F"/>
<path d="M412.819 354.6L423.819 380L435.719 373.4L412.819 354.6Z" stroke="#3D0938" stroke-width="4" stroke-miterlimit="10" stroke-linecap="round" stroke-linejoin="round"/>
<path d="M602.919 393.6C593.419 394.8 572.119 395.8 547.719 387C514.619 375.1 497.719 377.1 490.419 379.3C487.919 380 485.419 380.9 482.919 382C461.319 392.1 452.019 417.9 462.219 439.4C468.619 453.1 481.319 461.8 495.219 463.8C495.219 463.8 495.619 463.9 496.419 463.9C496.619 463.9 496.819 463.9 497.019 464C502.219 464.6 517.819 465.9 528.419 462.6C539.419 457.4 523.419 451.9 523.419 451.9C523.419 451.9 535.919 455.4 545.319 450.6C559.119 443.5 543.719 438.5 543.719 438.5C543.719 438.5 557.319 442.6 567.319 433.4C573.619 427.6 568.119 425.6 563.119 424.9C570.119 425 581.719 424 585.619 416.7C588.419 411.5 582.119 410.3 577.419 410.1C583.319 409.9 593.819 408.7 599.819 404.1C602.619 401.9 604.519 400 605.819 398.4C607.419 396.4 605.619 393.3 602.919 393.6Z" fill="#D4907F"/>
<path d="M602.919 393.6C593.419 394.8 572.119 395.8 547.719 387C514.619 375.1 497.719 377.1 490.419 379.3C487.919 380 485.419 380.9 482.919 382C461.319 392.1 452.019 417.9 462.219 439.4C468.619 453.1 481.319 461.8 495.219 463.8C495.219 463.8 495.619 463.9 496.419 463.9C496.619 463.9 496.819 463.9 497.019 464C502.219 464.6 517.819 465.9 528.419 462.6C539.419 457.4 523.419 451.9 523.419 451.9C523.419 451.9 535.919 455.4 545.319 450.6C559.119 443.5 543.719 438.5 543.719 438.5C543.719 438.5 557.319 442.6 567.319 433.4C573.619 427.6 568.119 425.6 563.119 424.9C570.119 425 581.719 424 585.619 416.7C588.419 411.5 579.519 410.2 574.919 410C580.819 409.8 593.819 408.7 599.819 404.1C602.619 401.9 604.519 400 605.819 398.4C607.419 396.4 605.619 393.3 602.919 393.6Z" stroke="#3D0938" stroke-width="4" stroke-miterlimit="10" stroke-linecap="round" stroke-linejoin="round"/>
<path d="M538.319 471.3C538.319 471.3 559.119 476.1 588.919 494.4C618.819 512.6 631.219 508.3 631.219 508.3" stroke="#3D0938" stroke-width="5" stroke-miterlimit="10" stroke-linecap="round" stroke-linejoin="round"/>
<path d="M596.019 516.6C596.019 516.6 582.319 516.1 568.719 498.4C555.119 480.7 549.719 472.2 544.019 471.8" stroke="#3D0938" stroke-width="5" stroke-miterlimit="10" stroke-linecap="round" stroke-linejoin="round"/>
<path d="M646.819 436.4C647.719 435.4 648.519 433.7 648.219 432C648.119 431.6 647.819 430.5 646.819 429.8C645.819 429 644.419 428.7 642.919 429C645.919 428.3 647.819 425.6 647.419 423C646.919 420.4 644.119 418.5 641.119 418.9C642.619 418.7 643.819 417.9 644.519 416.8C645.119 415.8 645.119 414.7 645.019 414.2C644.819 412.5 643.419 411.2 642.219 410.6C639.619 409.3 636.319 410.7 633.519 411.9C628.019 414.2 624.619 417.7 622.219 420.2C620.419 422.1 617.919 424.9 615.619 428.8C619.119 431.6 622.419 433.4 624.719 434.5C627.819 436 632.219 438 638.219 438.3C641.219 438.4 644.819 438.5 646.819 436.4Z" fill="#F0406F"/>
<path d="M646.319 432C646.219 431.6 645.919 430.5 644.919 429.8C644.719 429.7 644.519 429.6 644.319 429.4C644.019 430.1 643.619 430.6 643.219 431.1C641.219 433.2 637.619 433.1 634.619 433C628.619 432.7 624.219 430.7 621.119 429.2C619.519 428.5 617.619 427.4 615.419 426C614.819 426.9 614.219 427.8 613.619 428.8C617.119 431.6 620.419 433.4 622.719 434.5C625.819 436 630.219 438 636.219 438.3C639.219 438.4 642.819 438.5 644.819 436.4C645.919 435.4 646.719 433.7 646.319 432Z" fill="#DB2C62"/>
<path d="M641.019 411.6C640.319 412.7 639.119 413.5 637.619 413.7C639.819 413.4 641.919 414.4 643.019 415.9C643.219 415.2 643.119 414.6 643.119 414.3C642.919 413 642.119 411.9 641.219 411.2C641.119 411.3 641.119 411.4 641.019 411.6Z" fill="#DB2C62"/>
<path d="M613.719 428.7C614.019 428.9 614.319 429.1 614.619 429.4C615.919 427.6 617.219 426.2 618.319 425.1C620.719 422.6 624.119 419.2 629.619 416.8C632.419 415.6 635.719 414.3 638.319 415.5C639.319 416 640.419 417 640.919 418.3C641.619 417.9 642.219 417.4 642.619 416.8C643.219 415.8 643.219 414.7 643.119 414.2C642.919 412.5 641.519 411.2 640.319 410.6C637.719 409.3 634.419 410.7 631.619 411.9C626.119 414.2 622.719 417.7 620.319 420.2C618.519 422.1 616.019 424.9 613.719 428.7Z" fill="#F96291"/>
<path d="M646.819 436.4C647.719 435.4 648.519 433.7 648.219 432C648.119 431.6 647.819 430.5 646.819 429.8C645.819 429 644.419 428.7 642.919 429C645.919 428.3 647.819 425.6 647.419 423C646.919 420.4 644.119 418.5 641.119 418.9C642.619 418.7 643.819 417.9 644.519 416.8C645.119 415.8 645.119 414.7 645.019 414.2C644.819 412.5 643.419 411.2 642.219 410.6C639.619 409.3 636.319 410.7 633.519 411.9C628.019 414.2 624.619 417.7 622.219 420.2C620.419 422.1 617.919 424.9 615.619 428.8C619.119 431.6 622.419 433.4 624.719 434.5C627.819 436 632.219 438 638.219 438.3C641.219 438.4 644.819 438.5 646.819 436.4Z" stroke="#3D0938" stroke-width="4" stroke-miterlimit="10" stroke-linecap="round" stroke-linejoin="round"/>
<path d="M615.519 428.8C615.519 428.8 570.019 432.9 523.419 399.2C507.519 387.7 497.119 380.3 490.319 375.7C487.019 372.7 483.219 370.1 479.019 368.2C477.519 367.3 477.619 367.5 477.619 367.5C472.019 365.1 465.719 363.7 459.219 363.7C433.619 363.7 412.819 384.5 412.819 410.1C412.819 427.5 422.419 442.7 436.619 450.6C436.619 450.6 436.719 450.7 436.919 450.7C438.719 451.7 440.619 452.5 442.519 453.3C463.519 462.1 537.719 486.6 615.519 428.8Z" fill="#F1CB9C"/>
<path d="M459.219 369.1C465.719 369.1 472.019 370.5 477.619 372.9C477.619 372.9 477.519 372.7 479.019 373.6C483.119 375.6 486.919 378.1 490.319 381.1C497.119 385.8 507.419 393.1 523.419 404.6C559.619 430.7 597.419 431.8 611.519 432C613.619 430.5 613.419 431.4 615.519 429.8C615.519 429.8 570.019 433.9 523.419 400.2C507.519 388.7 497.119 381.3 490.319 376.7C487.019 373.7 483.219 371.1 479.019 369.2C477.519 368.3 477.619 368.5 477.619 368.5C472.019 366.1 465.719 364.7 459.219 364.7C433.619 364.7 412.819 385.5 412.819 411.1C412.819 411.8 412.819 412.4 412.919 413C414.219 388.5 434.419 369.1 459.219 369.1Z" fill="#F8E4C1"/>
<path d="M604.219 428.7C531.719 474 465.019 452 445.319 443.6C443.419 442.9 441.519 442 439.719 441C439.519 440.9 439.419 440.9 439.419 440.9C425.219 433 415.619 417.8 415.619 400.4C415.619 397.6 415.919 394.9 416.319 392.2C414.019 397.7 412.719 403.7 412.719 410C412.719 427.4 422.319 442.6 436.519 450.5C436.519 450.5 436.619 450.6 436.819 450.6C438.619 451.6 440.519 452.4 442.419 453.2C463.419 462.1 537.619 486.5 615.419 428.7C615.519 428.8 611.319 429.1 604.219 428.7Z" fill="#D4907F"/>
<path d="M615.519 428.8C615.519 428.8 570.019 432.9 523.419 399.2C507.519 387.7 497.119 380.3 490.319 375.7C487.019 372.7 483.219 370.1 479.019 368.2C477.519 367.3 477.619 367.5 477.619 367.5C472.019 365.1 465.719 363.7 459.219 363.7C433.619 363.7 412.819 384.5 412.819 410.1C412.819 427.5 422.419 442.7 436.619 450.6C436.619 450.6 436.719 450.7 436.919 450.7C438.719 451.7 440.619 452.5 442.519 453.3C463.519 462.1 537.719 486.6 615.519 428.8Z" stroke="#3D0938" stroke-width="4" stroke-miterlimit="10" stroke-linecap="round" stroke-linejoin="round"/>
<path d="M582.619 471.6C573.519 468.6 553.819 460.5 535.519 442.2C510.619 417.3 494.419 411.9 486.919 410.9C484.319 410.4 481.719 410.2 479.019 410.2C455.219 410.2 435.819 429.5 435.819 453.4C435.819 468.5 443.619 481.8 455.319 489.5C455.319 489.5 455.719 489.7 456.319 490.1C456.519 490.2 456.619 490.3 456.819 490.4C461.219 493.1 474.819 501 485.819 502.5C498.019 502.5 485.819 490.7 485.819 490.7C485.819 490.7 495.619 499.2 506.119 498.8C521.619 498.3 509.819 487.1 509.819 487.1C509.819 487.1 520.319 496.6 533.319 492.5C541.519 489.9 537.319 485.8 533.119 483C539.419 486.1 550.319 490.2 557.019 485.2C561.719 481.7 556.519 477.9 552.419 475.7C557.919 478 567.819 481.4 575.219 479.8C578.719 479 581.219 478.1 583.119 477.2C585.519 476.1 585.219 472.5 582.619 471.6Z" fill="#EFAB89"/>
<path d="M486.719 493.4C475.719 491.9 462.119 484 457.719 481.3C457.519 481.2 457.419 481.1 457.219 481C456.619 480.6 456.219 480.4 456.219 480.4C444.519 472.7 436.719 459.4 436.719 444.3C436.719 444.2 436.719 444.1 436.719 444C436.019 447 435.719 450.1 435.719 453.3C435.719 468.4 443.519 481.7 455.219 489.4C455.219 489.4 455.619 489.6 456.219 490C456.419 490.1 456.519 490.2 456.719 490.3C461.119 493 474.719 500.9 485.719 502.4C494.119 502.4 490.919 496.8 488.219 493.3C487.719 493.4 487.219 493.4 486.719 493.4Z" fill="#D4907F"/>
<path d="M582.619 471.6C581.519 471.2 580.219 470.8 578.719 470.2C577.919 470.4 576.719 470.1 576.119 470.8C572.419 476 551.819 473.5 546.419 471.2C550.519 473.4 549.719 474.5 558.019 476.1C558.719 476.2 556.919 476.8 556.319 477.1C561.919 479.1 569.319 481 575.219 479.7C578.719 478.9 581.219 478 583.119 477.1C585.519 476.1 585.219 472.5 582.619 471.6Z" fill="#D4907F"/>
<path d="M507.019 489.7C496.419 490.1 481.519 482.3 481.519 482.3C479.219 484 478.019 481.8 489.119 493.1C492.919 495.6 499.219 498.9 505.919 498.7C517.219 498.3 514.019 492.3 511.419 489.1C510.419 489.5 508.919 489.7 507.019 489.7Z" fill="#D4907F"/>
<path d="M533.919 483.6C521.019 487.4 505.719 480.3 505.719 480.3C505.719 480.3 506.619 484 512.119 488.9C515.919 491.4 523.919 495.4 533.219 492.5C540.919 490.1 537.819 486.3 533.919 483.6Z" fill="#D4907F"/>
<path d="M555.419 477.6C550.119 482.3 532.319 478.8 526.719 476.1C530.919 478.8 530.919 481 534.219 483.5H534.119C540.519 486.5 550.619 489.9 556.919 485.2C560.519 482.6 558.519 479.8 555.419 477.6Z" fill="#D4907F"/>
<path d="M582.619 471.6C573.519 468.6 553.819 460.5 535.519 442.2C510.619 417.3 494.419 411.9 486.919 410.9C484.319 410.4 481.719 410.2 479.019 410.2C455.219 410.2 435.819 429.5 435.819 453.4C435.819 468.5 443.619 481.8 455.319 489.5C455.319 489.5 455.719 489.7 456.319 490.1C456.519 490.2 456.619 490.3 456.819 490.4C461.219 493.1 474.819 501 485.819 502.5C498.019 502.5 485.819 490.7 485.819 490.7C485.819 490.7 495.619 499.2 506.119 498.8C521.619 498.3 509.819 487.1 509.819 487.1C509.819 487.1 520.319 496.6 533.319 492.5C541.519 489.9 537.319 485.8 533.119 483C539.419 486.1 550.319 490.2 557.019 485.2C561.719 481.7 556.519 477.9 552.419 475.7C557.919 478 567.819 481.4 575.219 479.8C578.719 479 581.219 478.1 583.119 477.2C585.519 476.1 585.219 472.5 582.619 471.6Z" stroke="#3D0938" stroke-width="4" stroke-miterlimit="10" stroke-linecap="round" stroke-linejoin="round"/>
<path d="M440.519 390.1C440.519 390.1 441.119 401.1 451.319 401.1C460.219 401.1 462.719 396.9 462.719 396.9" stroke="#3D0938" stroke-width="4" stroke-miterlimit="10" stroke-linecap="round" stroke-linejoin="round"/>
<path d="M437.119 396.8L442.119 395.6" stroke="#3D0938" stroke-width="4" stroke-miterlimit="10" stroke-linecap="round" stroke-linejoin="round"/>
<path d="M442.119 402.4L444.519 398.8" stroke="#3D0938" stroke-width="4" stroke-miterlimit="10" stroke-linecap="round" stroke-linejoin="round"/>
<path d="M449.719 401.1V405.2" stroke="#3D0938" stroke-width="4" stroke-miterlimit="10" stroke-linecap="round" stroke-linejoin="round"/>
<path d="M458.019 400.1L459.919 405.2" stroke="#3D0938" stroke-width="4" stroke-miterlimit="10" stroke-linecap="round" stroke-linejoin="round"/>
<path d="M465.219 430.5C465.219 430.5 468.619 434.4 472.419 430.5" stroke="#3D0938" stroke-width="3" stroke-miterlimit="10" stroke-linecap="round" stroke-linejoin="round"/>
<path d="M453.819 448.3C453.819 448.3 460.719 451.1 463.519 444.6" stroke="#3D0938" stroke-width="3" stroke-miterlimit="10" stroke-linecap="round" stroke-linejoin="round"/>
<path d="M454.519 465.2C454.519 465.2 459.419 467.1 461.319 462.6" stroke="#3D0938" stroke-width="3" stroke-miterlimit="10" stroke-linecap="round" stroke-linejoin="round"/>
<path d="M495.419 443.7C495.419 443.7 499.619 446.9 502.719 443.1" stroke="#3D0938" stroke-width="3" stroke-miterlimit="10" stroke-linecap="round" stroke-linejoin="round"/>
<path d="M507.919 468.2C507.919 468.2 512.119 471.4 515.219 467.6" stroke="#3D0938" stroke-width="3" stroke-miterlimit="10" stroke-linecap="round" stroke-linejoin="round"/>
<path d="M517.019 454.7C517.019 454.7 521.219 457.9 524.319 454.1" stroke="#3D0938" stroke-width="3" stroke-miterlimit="10" stroke-linecap="round" stroke-linejoin="round"/>
<path d="M490.719 456.9C490.719 456.9 494.919 460.1 498.019 456.3" stroke="#3D0938" stroke-width="3" stroke-miterlimit="10" stroke-linecap="round" stroke-linejoin="round"/>
<path d="M526.919 391.7C526.919 391.7 531.119 394.9 534.219 391.1" stroke="#3D0938" stroke-width="3" stroke-miterlimit="10" stroke-linecap="round" stroke-linejoin="round"/>
<path d="M555.419 414.3C555.419 414.3 559.619 417.5 562.719 413.7" stroke="#3D0938" stroke-width="3" stroke-miterlimit="10" stroke-linecap="round" stroke-linejoin="round"/>
<path d="M555.519 403.9C555.519 403.9 560.419 405.8 562.319 401.2" stroke="#3D0938" stroke-width="3" stroke-miterlimit="10" stroke-linecap="round" stroke-linejoin="round"/>
<path d="M540.719 401.7C540.719 401.7 545.919 402.3 546.619 397.4" stroke="#3D0938" stroke-width="3" stroke-miterlimit="10" stroke-linecap="round" stroke-linejoin="round"/>
<path d="M477.019 469.8C477.019 469.8 482.019 471.5 483.719 467" stroke="#3D0938" stroke-width="3" stroke-miterlimit="10" stroke-linecap="round" stroke-linejoin="round"/>
<path d="M475.319 442.2C475.319 442.2 480.719 446.1 484.519 441.1" stroke="#3D0938" stroke-width="3" stroke-miterlimit="10" stroke-linecap="round" stroke-linejoin="round"/>
<path d="M472.419 454.8C472.419 454.8 477.819 458.7 481.619 453.7" stroke="#3D0938" stroke-width="3" stroke-miterlimit="10" stroke-linecap="round" stroke-linejoin="round"/>
<path d="M480.019 483C480.019 483 480.819 485.7 485.719 490.6" stroke="#3D0938" stroke-width="4" stroke-miterlimit="10" stroke-linecap="round" stroke-linejoin="round"/>
<path d="M509.719 487.1C509.719 487.1 507.619 485.8 504.419 481.1" stroke="#3D0938" stroke-width="4" stroke-miterlimit="10" stroke-linecap="round" stroke-linejoin="round"/>
<path d="M533.119 483C533.119 483 528.819 480 525.319 476.1" stroke="#3D0938" stroke-width="4" stroke-miterlimit="10" stroke-linecap="round" stroke-linejoin="round"/>
<path d="M552.419 475.8C552.419 475.8 545.719 473 543.919 471.2" stroke="#3D0938" stroke-width="4" stroke-miterlimit="10" stroke-linecap="round" stroke-linejoin="round"/>
<path d="M382.919 291.9V313.4C382.419 313.3 381.819 313.2 381.219 313.2C377.319 313.2 374.119 315.9 374.119 319.3C374.119 322.7 377.319 325.4 381.219 325.4C385.119 325.4 388.319 322.7 388.319 319.3V295.6L403.919 289V306.1C403.419 306 402.819 305.9 402.219 305.9C398.319 305.9 395.119 308.6 395.119 312C395.119 315.4 398.319 318.1 402.219 318.1C406.119 318.1 409.319 315.4 409.319 312V286.7V284.6V280.7L382.919 291.9Z" fill="#F0406F"/>
<path d="M382.919 291.9V313.4C382.419 313.3 381.819 313.2 381.219 313.2C377.319 313.2 374.119 315.9 374.119 319.3C374.119 322.7 377.319 325.4 381.219 325.4C385.119 325.4 388.319 322.7 388.319 319.3V295.6L403.919 289V306.1C403.419 306 402.819 305.9 402.219 305.9C398.319 305.9 395.119 308.6 395.119 312C395.119 315.4 398.319 318.1 402.219 318.1C406.119 318.1 409.319 315.4 409.319 312V286.7V284.6V280.7L382.919 291.9Z" stroke="#3D0938" stroke-width="2" stroke-miterlimit="10" stroke-linecap="round" stroke-linejoin="round"/>
<path d="M381.619 204.2L374.419 229.9C374.119 231.1 372.819 231.7 371.619 231.4C366.519 230 361.319 232.4 360.119 236.8C358.919 241.2 362.019 245.9 367.119 247.3C372.219 248.7 377.419 246.3 378.619 241.9L386.819 212.3C387.019 211.5 387.819 210.8 388.619 210.7L406.619 208.4C408.219 208.2 409.419 209.6 409.019 211.2L404.319 228C404.019 229.2 402.719 229.8 401.519 229.5C396.419 228.1 391.219 230.5 390.019 234.9C388.819 239.3 391.919 244 397.019 245.4C402.119 246.8 407.319 244.4 408.519 240L417.719 207L418.419 204.3L418.919 202.4C419.319 200.9 418.119 199.4 416.519 199.6L381.619 204.2Z" fill="#21E8A6"/>
<path d="M381.619 204.2L374.419 229.9C374.119 231.1 372.819 231.7 371.619 231.4C366.519 230 361.319 232.4 360.119 236.8C358.919 241.2 362.019 245.9 367.119 247.3C372.219 248.7 377.419 246.3 378.619 241.9L386.819 212.3C387.019 211.5 387.819 210.8 388.619 210.7L406.619 208.4C408.219 208.2 409.419 209.6 409.019 211.2L404.319 228C404.019 229.2 402.719 229.8 401.519 229.5C396.419 228.1 391.219 230.5 390.019 234.9C388.819 239.3 391.919 244 397.019 245.4C402.119 246.8 407.319 244.4 408.519 240L417.719 207L418.419 204.3L418.919 202.4C419.319 200.9 418.119 199.4 416.519 199.6L381.619 204.2Z" stroke="#3D0938" stroke-width="2" stroke-miterlimit="10" stroke-linecap="round" stroke-linejoin="round"/>
<path d="M395.919 336.8L395.119 338C394.319 339.2 393.219 340.1 392.019 340.8L385.519 344.5L386.419 347.6L389.919 359.1C389.519 359.1 389.219 359.2 388.819 359.3C386.719 359.9 385.419 361.9 385.919 363.8C386.419 365.6 388.619 366.6 390.819 366C392.819 365.4 393.319 364.8 393.019 363.1L393.119 362.1L389.619 349.6L394.019 347C395.419 346.2 396.619 345.1 397.519 343.7L397.919 343.1L395.919 336.8Z" fill="#E38980"/>
<path d="M396.919 336.8L396.119 338C395.319 339.2 394.219 340.1 393.019 340.8L386.519 344.5L387.419 347.6L390.919 359.1C390.519 359.1 390.219 359.2 389.819 359.3C387.719 359.9 386.419 361.9 386.919 363.8C387.419 365.6 389.619 366.6 391.819 366C393.819 365.4 393.019 364.6 392.719 362.8L388.919 350.2L395.019 347C396.419 346.2 397.619 345.1 398.519 343.7L398.919 343.1L396.919 336.8Z" stroke="#3D0938" stroke-width="2" stroke-miterlimit="10" stroke-linecap="round" stroke-linejoin="round"/>
<path d="M122.319 147.9C120.319 136.5 109.519 128.9 98.2188 130.9C98.0188 130.9 97.8188 131 97.7188 131C92.7188 117.9 79.0188 109.7 64.6188 112.2C52.2188 114.4 42.9188 123.9 40.5188 135.5C37.0188 133.6 32.9188 132.8 28.7188 133.6C18.8188 135.3 12.2188 144.7 13.9188 154.6C15.6188 164.5 25.0188 171.1 34.9188 169.4C38.2188 168.8 41.1188 167.4 43.5188 165.4C45.8188 178.6 58.5188 187.5 71.7188 185.2C80.7188 183.6 87.8188 177.3 90.6188 169.2C94.8188 171.9 100.019 173.1 105.419 172.2C116.719 170 124.319 159.2 122.319 147.9Z" fill="#DDE6ED"/>
<path d="M107.019 163.3C101.719 164.2 96.4187 163 92.2187 160.3C89.4187 168.4 82.4187 174.7 73.3187 176.3C60.0187 178.6 47.4187 169.7 45.1187 156.5C42.7187 158.5 39.8187 159.9 36.5187 160.5C26.6187 162.2 17.2187 155.6 15.5187 145.7C15.4187 145 15.3187 144.3 15.3187 143.7C13.8187 146.9 13.2187 150.7 13.9187 154.5C15.6187 164.4 25.0187 171 34.9187 169.3C38.2187 168.7 41.1187 167.3 43.5187 165.3C45.8187 178.5 58.5187 187.4 71.7187 185.1C80.7187 183.5 87.8187 177.2 90.6187 169.1C94.8187 171.8 100.019 173 105.419 172.1C115.719 170.3 122.919 161.2 122.719 151C119.919 157.2 114.219 162 107.019 163.3Z" fill="#9DB2BF"/>
<path d="M122.319 147.9C120.319 136.5 109.519 128.9 98.2188 130.9C98.0188 130.9 97.8188 131 97.7188 131C92.7188 117.9 79.0188 109.7 64.6188 112.2C52.2188 114.4 42.9188 123.9 40.5188 135.5C37.0188 133.6 32.9188 132.8 28.7188 133.6C18.8188 135.3 12.2188 144.7 13.9188 154.6C15.6188 164.5 25.0188 171.1 34.9188 169.4C38.2188 168.8 41.1188 167.4 43.5188 165.4C45.8188 178.6 58.5188 187.5 71.7188 185.2C80.7188 183.6 87.8188 177.3 90.6188 169.2C94.8188 171.9 100.019 173.1 105.419 172.2C116.719 170 124.319 159.2 122.319 147.9Z" stroke="#3D0938" stroke-width="4" stroke-miterlimit="10" stroke-linecap="round" stroke-linejoin="round"/>
</svg>
