<svg xmlns="http://www.w3.org/2000/svg" height="48" viewBox="0 -960 960 960" width="48" fill="#ffffff"><path d="M479.779-135Q457-135 441-151.221q-16-16.221-16-39T441.221-229q16.221-16 39-16T519-228.779q16 16.221 16 39T518.779-151q-16.221 16-39 16Zm0-290Q457-425 441-441.221q-16-16.221-16-39T441.221-519q16.221-16 39-16T519-518.779q16 16.221 16 39T518.779-441q-16.221 16-39 16Zm0-290Q457-715 441-731.221q-16-16.222-16-39Q425-793 441.221-809q16.221-16 39-16T519-808.779q16 16.222 16 39Q535-747 518.779-731q-16.221 16-39 16Z"/></svg>